<svg width="100" height="100" viewBox="0 0 100 100" fill="none" xmlns="http://www.w3.org/2000/svg">
<path d="M55.75 14.575C54.625 14.575 53.6209 15.3667 53.3917 16.5125L41.0417 79.1083C40.9213 79.7329 41.0519 80.3797 41.4052 80.9085C41.7586 81.4374 42.3061 81.8056 42.9292 81.9333L59.9917 85.375C60.6199 85.5001 61.2721 85.3707 61.8049 85.0152C62.3377 84.6597 62.7076 84.1073 62.8334 83.4792L75.1792 20.8917C75.2996 20.2672 75.169 19.6203 74.8157 19.0915C74.4623 18.5627 73.9147 18.1944 73.2917 18.0667L56.225 14.625C56.07 14.5935 55.9082 14.5767 55.75 14.575ZM31.2667 14.9833C30.821 14.9845 30.3843 15.1088 30.0048 15.3427C29.6254 15.5765 29.318 15.9107 29.1167 16.3083L0.258361 73.7375C0.115825 74.0191 0.0303463 74.3262 0.00683731 74.6409C-0.0166717 74.9557 0.0222522 75.272 0.121372 75.5717C0.220493 75.8714 0.377855 76.1485 0.584418 76.3872C0.79098 76.6259 1.04267 76.8214 1.32503 76.9625L16.8792 84.7833C17.4504 85.0663 18.1103 85.112 18.7151 84.9107C19.3199 84.7093 19.8207 84.2772 20.1084 83.7083L48.9667 26.2875C49.1094 26.0053 49.195 25.6976 49.2186 25.3822C49.2423 25.0668 49.2034 24.7499 49.1043 24.4495C49.0052 24.1491 48.8479 23.8713 48.6412 23.6318C48.4345 23.3924 48.1827 23.1961 47.9 23.0542L32.3417 15.2417C32.0071 15.0764 31.6398 14.9881 31.2667 14.9833ZM80.1834 15.4625C79.5468 15.4625 78.9364 15.7154 78.4863 16.1655C78.0362 16.6155 77.7834 17.226 77.7834 17.8625V82.1375C77.7834 83.4625 78.8584 84.5458 80.1834 84.5458H97.5917C98.2297 84.5437 98.841 84.2892 99.2922 83.838C99.7434 83.3869 99.9978 82.7756 100 82.1375V17.8625C99.9956 17.2259 99.7402 16.6167 99.2893 16.1674C98.8383 15.718 98.2283 15.4647 97.5917 15.4625H80.1834Z" fill="#FF00A8"/>
</svg>
